<svg width="28" height="28" viewBox="0 0 28 28" fill="none" xmlns="http://www.w3.org/2000/svg">
<path d="M8.75 14V7C8.75 5.60761 9.30312 4.27226 10.2877 3.28769C11.2723 2.30312 12.6076 1.75 14 1.75C15.3924 1.75 16.7277 2.30312 17.7123 3.28769C18.6969 4.27226 19.25 5.60761 19.25 7V14C19.25 15.3924 18.6969 16.7277 17.7123 17.7123C16.7277 18.6969 15.3924 19.25 14 19.25C12.6076 19.25 11.2723 18.6969 10.2877 17.7123C9.30312 16.7277 8.75 15.3924 8.75 14ZM22.75 14C22.75 13.7679 22.6578 13.5454 22.4937 13.3813C22.3296 13.2172 22.1071 13.125 21.875 13.125C21.6429 13.125 21.4204 13.2172 21.2563 13.3813C21.0922 13.5454 21 13.7679 21 14C21 15.8565 20.2625 17.637 18.9497 18.9497C17.637 20.2625 15.8565 21 14 21C12.1435 21 10.363 20.2625 9.05025 18.9497C7.7375 17.637 7 15.8565 7 14C7 13.7679 6.90781 13.5454 6.74372 13.3813C6.57962 13.2172 6.35706 13.125 6.125 13.125C5.89294 13.125 5.67038 13.2172 5.50628 13.3813C5.34219 13.5454 5.25 13.7679 5.25 14C5.25266 16.1684 6.05929 18.2588 7.51389 19.8669C8.96849 21.4751 10.9677 22.4867 13.125 22.7063V26.25C13.125 26.4821 13.2172 26.7046 13.3813 26.8687C13.5454 27.0328 13.7679 27.125 14 27.125C14.2321 27.125 14.4546 27.0328 14.6187 26.8687C14.7828 26.7046 14.875 26.4821 14.875 26.25V22.7063C17.0323 22.4867 19.0315 21.4751 20.4861 19.8669C21.9407 18.2588 22.7473 16.1684 22.75 14Z" fill="#868686"/>
</svg>
