<svg width="40" height="40" viewBox="0 0 40 40" fill="none" xmlns="http://www.w3.org/2000/svg">
<rect width="40" height="40" rx="20" fill="#8D48FF"/>
<path d="M30.5001 19.9897C30.5008 20.2569 30.4301 20.5195 30.2952 20.7502C30.1604 20.981 29.9664 21.1715 29.7332 21.3022L13.9907 30.3031C13.7648 30.4311 13.5098 30.4989 13.2501 30.5C13.0109 30.4987 12.7754 30.4402 12.5633 30.3293C12.3513 30.2185 12.1688 30.0586 12.0312 29.8628C11.8936 29.6671 11.8047 29.4413 11.7722 29.2043C11.7396 28.9673 11.7642 28.7259 11.8439 28.5003L14.3751 21.005C14.3998 20.9317 14.4466 20.8679 14.5091 20.8222C14.5715 20.7766 14.6465 20.7513 14.7239 20.75H21.5001C21.6029 20.7502 21.7047 20.7293 21.7991 20.6885C21.8935 20.6478 21.9785 20.588 22.0488 20.513C22.1191 20.438 22.1733 20.3494 22.2079 20.2526C22.2426 20.1558 22.2569 20.0529 22.2501 19.9503C22.2331 19.7574 22.1439 19.5781 22.0003 19.4482C21.8567 19.3184 21.6693 19.2476 21.4757 19.25H14.7257C14.6473 19.25 14.5708 19.2254 14.5071 19.1796C14.4433 19.1339 14.3955 19.0693 14.3704 18.995L11.8392 11.5006C11.7384 11.2133 11.7275 10.9022 11.8077 10.6086C11.888 10.315 12.0557 10.0527 12.2886 9.85664C12.5215 9.66059 12.8085 9.54004 13.1115 9.51099C13.4145 9.48195 13.7192 9.54579 13.9851 9.69403L29.7351 18.6837C29.9669 18.814 30.16 19.0036 30.2944 19.2331C30.4288 19.4626 30.4998 19.7237 30.5001 19.9897Z" fill="white"/>
</svg>
